<svg xmlns="http://www.w3.org/2000/svg" width="640" height="864" viewBox="0 0 640 864" style="background:#fff;font-family:-apple-system,BlinkMacSystemFont,Helvetica,sans-serif">
<defs><marker id="a" viewBox="0 0 8 8" refX="7" refY="4" markerWidth="6" markerHeight="6" orient="auto"><path d="M0 0L8 4L0 8z" fill="#b5502c"/></marker></defs>
<rect width="100%" height="100%" fill="#fff"/>
<path d="M87 128v16M242 128v16M397 128v16M552 128v16M87 144H552M210 144v14M430 144v14M210 200v14M430 200v14M210 214H430M320 214v14" stroke="#d1d1d6" fill="none"/>
<text x="320.0" y="30" fill="#141413" font-size="18" font-weight="700" text-anchor="middle">Joshua Tree at a glance</text>
<text x="320.0" y="48" fill="#888" font-size="11" text-anchor="middle">A computer that knows what you want before you ask, and keeps it on your machine.</text>
<text x="20" y="78" fill="#888" font-size="10" font-weight="600" letter-spacing="1">WHERE IT RUNS</text>
<rect x="20" y="86" width="135" height="42" rx="8" fill="#f5f5f7" stroke="#d1d1d6"/>
<text x="87.5" y="105.0" fill="#333" font-size="11" font-weight="600" text-anchor="middle">Browser</text>
<text x="87.5" y="118.0" fill="#333" font-size="10" text-anchor="middle">the landing page</text>
<rect x="175" y="86" width="135" height="42" rx="8" fill="#f5f5f7" stroke="#d1d1d6"/>
<text x="242.5" y="105.0" fill="#333" font-size="11" font-weight="600" text-anchor="middle">QEMU</text>
<text x="242.5" y="118.0" fill="#333" font-size="10" text-anchor="middle">dev and CI</text>
<rect x="330" y="86" width="135" height="42" rx="8" fill="#b5502c" fill-opacity=".12" stroke="#b5502c"/>
<text x="397.5" y="105.0" fill="#333" font-size="11" font-weight="600" text-anchor="middle">Raspberry Pi 4</text>
<text x="397.5" y="118.0" fill="#333" font-size="10" text-anchor="middle">the real board</text>
<rect x="485" y="86" width="135" height="42" rx="8" fill="#f5f5f7" stroke="#d1d1d6"/>
<text x="552.5" y="105.0" fill="#333" font-size="11" font-weight="600" text-anchor="middle">Real PC</text>
<text x="552.5" y="118.0" fill="#333" font-size="10" text-anchor="middle">from a USB stick</text>
<rect x="110" y="158" width="200" height="42" rx="8" fill="#2f6b3a" fill-opacity=".15" stroke="#2f6b3a"/>
<text x="210.0" y="177.0" fill="#333" font-size="11" font-weight="600" text-anchor="middle">Desktop</text>
<text x="210.0" y="190.0" fill="#333" font-size="10" text-anchor="middle">windows, dock, 30 apps</text>
<rect x="330" y="158" width="200" height="42" rx="8" fill="#2f6b3a" fill-opacity=".15" stroke="#2f6b3a"/>
<text x="430.0" y="177.0" fill="#333" font-size="11" font-weight="600" text-anchor="middle">Samantha</text>
<text x="430.0" y="190.0" fill="#333" font-size="10" text-anchor="middle">you type, she runs it</text>
<rect x="110" y="228" width="420" height="42" rx="8" fill="#2f6b3a" fill-opacity=".15" stroke="#2f6b3a"/>
<text x="320.0" y="247.0" fill="#333" font-size="11" font-weight="600" text-anchor="middle">Kernel</text>
<text x="320.0" y="260.0" fill="#333" font-size="10" text-anchor="middle">tasks, drivers, fonts, network, disk, on i386 and ARM64</text>
<text x="320.0" y="290" fill="#888" font-size="10" text-anchor="middle">Calls out to a Cloudflare Worker, Turing (her brain), ElevenLabs (her voice) and Open-Meteo.</text>
<text x="20" y="320" fill="#888" font-size="10" font-weight="600" letter-spacing="1">WHAT HAPPENS WHEN YOU TALK TO SAMANTHA</text>
<rect x="20.0" y="330" width="139.5" height="40" rx="8" fill="#f5f5f7" stroke="#d1d1d6"/>
<text x="89.75" y="348.0" fill="#333" font-size="11" font-weight="600" text-anchor="middle">You type</text>
<text x="89.75" y="361.0" fill="#333" font-size="10" text-anchor="middle">"call Mom at 5"</text>
<path d="M161.5 350h8.0" stroke="#b5502c" stroke-width="1.5" marker-end="url(#a)"/>
<rect x="173.5" y="330" width="139.5" height="40" rx="8" fill="#f5f5f7" stroke="#d1d1d6"/>
<text x="243.25" y="348.0" fill="#333" font-size="11" font-weight="600" text-anchor="middle">Turing</text>
<text x="243.25" y="361.0" fill="#333" font-size="10" text-anchor="middle">picks the tool</text>
<path d="M315.0 350h8.0" stroke="#b5502c" stroke-width="1.5" marker-end="url(#a)"/>
<rect x="327.0" y="330" width="139.5" height="40" rx="8" fill="#2f6b3a" fill-opacity=".15" stroke="#2f6b3a"/>
<text x="396.75" y="348.0" fill="#333" font-size="11" font-weight="600" text-anchor="middle">Joshua Tree</text>
<text x="396.75" y="361.0" fill="#333" font-size="10" text-anchor="middle">does it</text>
<path d="M468.5 350h8.0" stroke="#b5502c" stroke-width="1.5" marker-end="url(#a)"/>
<rect x="480.5" y="330" width="139.5" height="40" rx="8" fill="#2f6b3a" fill-opacity=".15" stroke="#2f6b3a"/>
<text x="550.25" y="348.0" fill="#333" font-size="11" font-weight="600" text-anchor="middle">She answers</text>
<text x="550.25" y="361.0" fill="#333" font-size="10" text-anchor="middle">voice and face</text>
<text x="20" y="400" fill="#888" font-size="10" font-weight="600" letter-spacing="1">THE PI, ON THE REAL BOARD</text>
<rect x="20.0" y="410" width="93.33333333333333" height="40" rx="8" fill="#b5502c" fill-opacity=".12" stroke="#b5502c"/>
<text x="66.66666666666666" y="428.0" fill="#333" font-size="11" font-weight="600" text-anchor="middle">Screen</text>
<text x="66.66666666666666" y="441.0" fill="#333" font-size="10" text-anchor="middle">1080p desktop</text>
<rect x="121.33333333333333" y="410" width="93.33333333333333" height="40" rx="8" fill="#b5502c" fill-opacity=".12" stroke="#b5502c"/>
<text x="168.0" y="428.0" fill="#333" font-size="11" font-weight="600" text-anchor="middle">Keyboard</text>
<text x="168.0" y="441.0" fill="#333" font-size="10" text-anchor="middle">USB, hot-plug</text>
<rect x="222.66666666666666" y="410" width="93.33333333333333" height="40" rx="8" fill="#b5502c" fill-opacity=".12" stroke="#b5502c"/>
<text x="269.3333333333333" y="428.0" fill="#333" font-size="11" font-weight="600" text-anchor="middle">Wi-Fi</text>
<text x="269.3333333333333" y="441.0" fill="#333" font-size="10" text-anchor="middle">WPA2, joined</text>
<rect x="324.0" y="410" width="93.33333333333333" height="40" rx="8" fill="#b5502c" fill-opacity=".12" stroke="#b5502c"/>
<text x="370.6666666666667" y="428.0" fill="#333" font-size="11" font-weight="600" text-anchor="middle">Internet</text>
<text x="370.6666666666667" y="441.0" fill="#333" font-size="10" text-anchor="middle">DHCP and DNS</text>
<rect x="425.3333333333333" y="410" width="93.33333333333333" height="40" rx="8" fill="#b5502c" fill-opacity=".12" stroke="#b5502c"/>
<text x="472.0" y="428.0" fill="#333" font-size="11" font-weight="600" text-anchor="middle">Clock</text>
<text x="472.0" y="441.0" fill="#333" font-size="10" text-anchor="middle">from the net</text>
<rect x="526.6666666666666" y="410" width="93.33333333333333" height="40" rx="8" fill="#b5502c" fill-opacity=".12" stroke="#b5502c"/>
<text x="573.3333333333333" y="428.0" fill="#333" font-size="11" font-weight="600" text-anchor="middle">Samantha</text>
<text x="573.3333333333333" y="441.0" fill="#333" font-size="10" text-anchor="middle">chat on the Pi</text>
<rect x="20.0" y="460" width="93.33333333333333" height="40" rx="8" fill="#b5502c" fill-opacity=".12" stroke="#b5502c"/>
<text x="66.66666666666666" y="478.0" fill="#333" font-size="11" font-weight="600" text-anchor="middle">Pi actions</text>
<text x="66.66666666666666" y="491.0" fill="#333" font-size="10" text-anchor="middle">note, green light</text>
<rect x="121.33333333333333" y="460" width="93.33333333333333" height="40" rx="8" fill="#fff" stroke="#ccc" stroke-dasharray="3 3"/>
<text x="168.0" y="478.0" fill="#666" font-size="9" font-weight="600" text-anchor="middle">Sound</text>
<text x="168.0" y="491.0" fill="#666" font-size="8" text-anchor="middle">headphone jack</text>
<rect x="222.66666666666666" y="460" width="93.33333333333333" height="40" rx="8" fill="#fff" stroke="#ccc" stroke-dasharray="3 3"/>
<text x="269.3333333333333" y="478.0" fill="#666" font-size="9" font-weight="600" text-anchor="middle">Mouse</text>
<text x="269.3333333333333" y="491.0" fill="#666" font-size="8" text-anchor="middle">USB, wired</text>
<rect x="324.0" y="460" width="93.33333333333333" height="40" rx="8" fill="#fff" stroke="#ccc" stroke-dasharray="3 3"/>
<text x="370.6666666666667" y="478.0" fill="#666" font-size="9" font-weight="600" text-anchor="middle">Mic</text>
<text x="370.6666666666667" y="491.0" fill="#666" font-size="8" text-anchor="middle">Yeti, USB</text>
<rect x="425.3333333333333" y="460" width="93.33333333333333" height="40" rx="8" fill="#fff" stroke="#ccc" stroke-dasharray="3 3"/>
<text x="472.0" y="478.0" fill="#666" font-size="9" font-weight="600" text-anchor="middle">HTTPS</text>
<text x="472.0" y="491.0" fill="#666" font-size="8" text-anchor="middle">secure sites</text>
<rect x="526.6666666666666" y="460" width="93.33333333333333" height="40" rx="8" fill="#fff" stroke="#ccc" stroke-dasharray="3 3"/>
<text x="573.3333333333333" y="478.0" fill="#666" font-size="9" font-weight="600" text-anchor="middle">Apps</text>
<text x="573.3333333333333" y="491.0" fill="#666" font-size="8" text-anchor="middle">open on the Pi</text>
<text x="20" y="518" fill="#888" font-size="9">Solid boxes are seen working on the real board (2026-10-08); dashed are next, in order.</text>
<g transform="translate(0,50)">
<text x="20" y="496" fill="#888" font-size="10" font-weight="600" letter-spacing="1">HOW IT GETS BUILT</text>
<rect x="20.0" y="506" width="139.5" height="40" rx="8" fill="#f5f5f7" stroke="#d1d1d6"/>
<text x="89.75" y="524.0" fill="#333" font-size="11" font-weight="600" text-anchor="middle">Roadmap</text>
<text x="89.75" y="537.0" fill="#333" font-size="10" text-anchor="middle">the queue</text>
<path d="M161.5 526h8.0" stroke="#b5502c" stroke-width="1.5" marker-end="url(#a)"/>
<rect x="173.5" y="506" width="139.5" height="40" rx="8" fill="#2f6b3a" fill-opacity=".15" stroke="#2f6b3a"/>
<text x="243.25" y="524.0" fill="#333" font-size="11" font-weight="600" text-anchor="middle">Build it</text>
<text x="243.25" y="537.0" fill="#333" font-size="10" text-anchor="middle">one agent, own branch</text>
<path d="M315.0 526h8.0" stroke="#b5502c" stroke-width="1.5" marker-end="url(#a)"/>
<rect x="327.0" y="506" width="139.5" height="40" rx="8" fill="#2f6b3a" fill-opacity=".15" stroke="#2f6b3a"/>
<text x="396.75" y="524.0" fill="#333" font-size="11" font-weight="600" text-anchor="middle">Prove it</text>
<text x="396.75" y="537.0" fill="#333" font-size="10" text-anchor="middle">tests, real frames</text>
<path d="M468.5 526h8.0" stroke="#b5502c" stroke-width="1.5" marker-end="url(#a)"/>
<rect x="480.5" y="506" width="139.5" height="40" rx="8" fill="#b5502c" fill-opacity=".12" stroke="#b5502c"/>
<text x="550.25" y="524.0" fill="#333" font-size="11" font-weight="600" text-anchor="middle">Ship it</text>
<text x="550.25" y="537.0" fill="#333" font-size="10" text-anchor="middle">merge on green</text>
<path d="M550.25 546v10H89.75v-6" fill="none" stroke="#b5502c" stroke-width="1.2" stroke-dasharray="3 3" marker-end="url(#a)"/><text x="320.0" y="568" fill="#888" font-size="9" text-anchor="middle">next item</text>
<text x="20" y="594" fill="#888" font-size="10" font-weight="600" letter-spacing="1">MEMORY, PC BUILD</text>
<rect x="20.0" y="602" width="48.8" height="16" fill="#2f6b3a"/>
<rect x="68.8" y="602" width="463.7" height="16" fill="#7fa886"/>
<rect x="532.5" y="602" width="2.0" height="16" fill="#b5502c"/>
<rect x="534.5" y="602" width="61.3" height="16" fill="#c9d9cb"/>
<rect x="595.8" y="602" width="17.0" height="16" fill="#141413"/>
<rect x="612.8" y="602" width="8.3" height="16" fill="#d97757"/>
<rect x="20" y="626" width="8" height="8" fill="#2f6b3a"/><text x="31" y="634" fill="#555" font-size="9">code 378 KB</text>
<rect x="220" y="626" width="8" height="8" fill="#7fa886"/><text x="231" y="634" fill="#555" font-size="9">fonts, images, text 3,593 KB</text>
<rect x="420" y="626" width="8" height="8" fill="#b5502c"/><text x="431" y="634" fill="#555" font-size="9">starting values 7 KB</text>
<rect x="20" y="640" width="8" height="8" fill="#c9d9cb"/><text x="31" y="648" fill="#555" font-size="9">working memory 475 KB</text>
<rect x="220" y="640" width="8" height="8" fill="#141413"/><text x="231" y="648" fill="#555" font-size="9">programs 132 KB</text>
<rect x="420" y="640" width="8" height="8" fill="#d97757"/><text x="431" y="648" fill="#555" font-size="9">sound 64 KB</text>
<text x="20" y="664" fill="#888" font-size="10" font-weight="600" letter-spacing="1">APPS SHIPPED</text>
<path d="M20 674H620M20 714H620M20 754H620" stroke="#ece8df"/>
<polyline points="20,754 34,754 49,754 63,754 77,754 93,736 107,733 121,733 136,714 151,706 166,701 180,698 194,698 210,698 224,698 239,696 253,690 269,688 283,688 297,688 311,688 327,685 341,685 356,685 370,685 386,685 400,685 414,685 429,685 444,690 459,690 473,690 487,690 503,685 517,685 531,685 546,680 561,674 576,674 590,674 604,674 620,674" fill="none" stroke="#141413" stroke-width="2.5" stroke-linejoin="round" stroke-linecap="round"/>
<circle cx="620" cy="674" r="4" fill="#fff" stroke="#b5502c" stroke-width="2"/>
<text x="612" y="696" fill="#141413" font-size="12" font-weight="600" text-anchor="end">30 apps</text>
<text x="20" y="772" fill="#888" font-size="10">2026-08-31</text><text x="620" y="772" fill="#888" font-size="10" text-anchor="end">2026-10-07</text>
<text x="320.0" y="798" fill="#888" font-size="10" text-anchor="middle">Terracotta: the newest piece. Drawn by tools/gen/map.py; the detail graphs live in docs/.</text>
</g>
</svg>
