<svg xmlns="http://www.w3.org/2000/svg" width="484" height="194" viewBox="0 0 484 194"><style>
  :root {
    --bg: #faf8f6; --grid: #e8e2da; --axis: #ded6ca; --muted: #a39c92;
    --label: #75726e; --strong: #1c1c1e; --line: #884b16; --line2: #4c2e13; --line2-pct: #b6a08a;
  }
  @media (prefers-color-scheme: dark) {
    :root { --bg: #161412; --grid: #2c2724; --axis: #3a332e; --muted: #8a8177;
             --label: #b3aa9f; --strong: #f2f0ee; --line: #d99a5b; --line2: #e8b98a; --line2-pct: #c3a58a; }
  }
  text { font-family: -apple-system, Helvetica, Arial, sans-serif; }
</style><defs><linearGradient id="area" x1="0" y1="0" x2="0" y2="1"><stop offset="0%" stop-color="var(--line)" stop-opacity="0.35"/><stop offset="100%" stop-color="var(--line)" stop-opacity="0"/></linearGradient></defs><rect width="100%" height="100%" fill="var(--bg)"/><line x1="34" y1="8" x2="48" y2="8" stroke="var(--line)" stroke-width="2.5"/><text x="53" y="11" font-size="10" fill="var(--label)">Lines of real code</text><line x1="184" y1="8" x2="198" y2="8" stroke="var(--line2)" stroke-width="2" stroke-dasharray="4 3"/><text x="203" y="11" font-size="10" fill="var(--label)">% documented</text><line x1="34" y1="26" x2="454" y2="26" stroke="var(--grid)"/><text x="2" y="29" font-size="9" fill="var(--muted)">9861</text><line x1="34" y1="96" x2="454" y2="96" stroke="var(--grid)"/><text x="2" y="99" font-size="9" fill="var(--muted)">4930</text><line x1="34" y1="26" x2="34" y2="166" stroke="var(--axis)"/><line x1="34" y1="166" x2="454" y2="166" stroke="var(--axis)"/><text x="2" y="169" font-size="9" fill="var(--muted)">0</text><polygon points="34,166 34,166 43,162 53,159 63,158 73,155 82,151 92,150 102,148 112,145 121,143 131,141 141,138 151,138 160,138 170,138 180,138 190,133 200,129 209,127 219,124 229,117 239,114 248,112 258,107 268,104 278,98 287,96 297,91 307,87 317,85 327,80 336,77 346,75 356,73 366,65 375,62 385,58 395,56 405,51 414,43 424,37 434,33 444,30 454,26 454,166" fill="url(#area)"/><text x="458" y="29" font-size="9" fill="var(--line2-pct)">100%</text><text x="458" y="169" font-size="9" fill="var(--line2-pct)">0%</text><polyline points="34,137 43,140 53,138 63,137 73,136 82,136 92,136 102,136 112,133 121,131 131,130 141,130 151,130 160,130 170,130 180,130 190,130 200,130 209,130 219,130 229,130 239,129 248,127 258,129 268,127 278,126 287,124 297,123 307,122 317,123 327,123 336,123 346,123 356,123 366,123 375,123 385,123 395,123 405,124 414,124 424,123 434,122 444,122 454,122" fill="none" stroke="var(--line2)" stroke-width="2" stroke-dasharray="4 3" stroke-linejoin="round" stroke-linecap="round" opacity="0.75"/><polyline points="34,166 43,162 53,159 63,158 73,155 82,151 92,150 102,148 112,145 121,143 131,141 141,138 151,138 160,138 170,138 180,138 190,133 200,129 209,127 219,124 229,117 239,114 248,112 258,107 268,104 278,98 287,96 297,91 307,87 317,85 327,80 336,77 346,75 356,73 366,65 375,62 385,58 395,56 405,51 414,43 424,37 434,33 444,30 454,26" fill="none" stroke="var(--line)" stroke-width="2.5" stroke-linejoin="round" stroke-linecap="round"/><circle cx="34" cy="166" r="3" fill="var(--bg)" stroke="var(--line)" stroke-width="2"/><circle cx="43" cy="162" r="3" fill="var(--bg)" stroke="var(--line)" stroke-width="2"/><circle cx="53" cy="159" r="3" fill="var(--bg)" stroke="var(--line)" stroke-width="2"/><circle cx="63" cy="158" r="3" fill="var(--bg)" stroke="var(--line)" stroke-width="2"/><circle cx="73" cy="155" r="3" fill="var(--bg)" stroke="var(--line)" stroke-width="2"/><circle cx="82" cy="151" r="3" fill="var(--bg)" stroke="var(--line)" stroke-width="2"/><circle cx="92" cy="150" r="3" fill="var(--bg)" stroke="var(--line)" stroke-width="2"/><circle cx="102" cy="148" r="3" fill="var(--bg)" stroke="var(--line)" stroke-width="2"/><circle cx="112" cy="145" r="3" fill="var(--bg)" stroke="var(--line)" stroke-width="2"/><circle cx="121" cy="143" r="3" fill="var(--bg)" stroke="var(--line)" stroke-width="2"/><circle cx="131" cy="141" r="3" fill="var(--bg)" stroke="var(--line)" stroke-width="2"/><circle cx="141" cy="138" r="3" fill="var(--bg)" stroke="var(--line)" stroke-width="2"/><circle cx="151" cy="138" r="3" fill="var(--bg)" stroke="var(--line)" stroke-width="2"/><circle cx="160" cy="138" r="3" fill="var(--bg)" stroke="var(--line)" stroke-width="2"/><circle cx="170" cy="138" r="3" fill="var(--bg)" stroke="var(--line)" stroke-width="2"/><circle cx="180" cy="138" r="3" fill="var(--bg)" stroke="var(--line)" stroke-width="2"/><circle cx="190" cy="133" r="3" fill="var(--bg)" stroke="var(--line)" stroke-width="2"/><circle cx="200" cy="129" r="3" fill="var(--bg)" stroke="var(--line)" stroke-width="2"/><circle cx="209" cy="127" r="3" fill="var(--bg)" stroke="var(--line)" stroke-width="2"/><circle cx="219" cy="124" r="3" fill="var(--bg)" stroke="var(--line)" stroke-width="2"/><circle cx="229" cy="117" r="3" fill="var(--bg)" stroke="var(--line)" stroke-width="2"/><circle cx="239" cy="114" r="3" fill="var(--bg)" stroke="var(--line)" stroke-width="2"/><circle cx="248" cy="112" r="3" fill="var(--bg)" stroke="var(--line)" stroke-width="2"/><circle cx="258" cy="107" r="3" fill="var(--bg)" stroke="var(--line)" stroke-width="2"/><circle cx="268" cy="104" r="3" fill="var(--bg)" stroke="var(--line)" stroke-width="2"/><circle cx="278" cy="98" r="3" fill="var(--bg)" stroke="var(--line)" stroke-width="2"/><circle cx="287" cy="96" r="3" fill="var(--bg)" stroke="var(--line)" stroke-width="2"/><circle cx="297" cy="91" r="3" fill="var(--bg)" stroke="var(--line)" stroke-width="2"/><circle cx="307" cy="87" r="3" fill="var(--bg)" stroke="var(--line)" stroke-width="2"/><circle cx="317" cy="85" r="3" fill="var(--bg)" stroke="var(--line)" stroke-width="2"/><circle cx="327" cy="80" r="3" fill="var(--bg)" stroke="var(--line)" stroke-width="2"/><circle cx="336" cy="77" r="3" fill="var(--bg)" stroke="var(--line)" stroke-width="2"/><circle cx="346" cy="75" r="3" fill="var(--bg)" stroke="var(--line)" stroke-width="2"/><circle cx="356" cy="73" r="3" fill="var(--bg)" stroke="var(--line)" stroke-width="2"/><circle cx="366" cy="65" r="3" fill="var(--bg)" stroke="var(--line)" stroke-width="2"/><circle cx="375" cy="62" r="3" fill="var(--bg)" stroke="var(--line)" stroke-width="2"/><circle cx="385" cy="58" r="3" fill="var(--bg)" stroke="var(--line)" stroke-width="2"/><circle cx="395" cy="56" r="3" fill="var(--bg)" stroke="var(--line)" stroke-width="2"/><circle cx="405" cy="51" r="3" fill="var(--bg)" stroke="var(--line)" stroke-width="2"/><circle cx="414" cy="43" r="3" fill="var(--bg)" stroke="var(--line)" stroke-width="2"/><circle cx="424" cy="37" r="3" fill="var(--bg)" stroke="var(--line)" stroke-width="2"/><circle cx="434" cy="33" r="3" fill="var(--bg)" stroke="var(--line)" stroke-width="2"/><circle cx="444" cy="30" r="3" fill="var(--bg)" stroke="var(--line)" stroke-width="2"/><circle cx="454" cy="26" r="3" fill="var(--bg)" stroke="var(--line)" stroke-width="2"/><text x="34" y="182" font-size="10" fill="var(--label)" text-anchor="middle">Aug 31</text><text x="366" y="182" font-size="10" fill="var(--label)" text-anchor="middle">Sep 14</text><text x="34" y="190" font-size="10" font-weight="600" fill="var(--strong)">9,861 lines &#183; 32% documented &#183; 219 commits since Aug 31</text></svg>