<svg xmlns="http://www.w3.org/2000/svg" width="457" height="190" viewBox="0 0 457 190"><style>
  :root {
    --bg: #ffffff; --grid: #e4e0d6; --axis: #6b6a63; --muted: #6b6a63;
    --label: #6b6a63; --strong: #141413; --line: #141413; --line2: #d97757; --line2-pct: #d97757;
  }
  @media (prefers-color-scheme: dark) {
    :root { --bg: #1c1b1a; --grid: #38362f; --axis: #b8b6ac; --muted: #b8b6ac;
             --label: #b8b6ac; --strong: #ece8df; --line: #ece8df; --line2: #d97757; --line2-pct: #d97757; }
  }
  line[stroke="var(--grid)"] { stroke-dasharray: none; }
  text { font-family: -apple-system, Helvetica, Arial, sans-serif; }
</style><rect width="100%" height="100%" fill="var(--bg)"/><line x1="17" y1="10" x2="437" y2="10" stroke="var(--grid)"/><line x1="17" y1="80" x2="437" y2="80" stroke="var(--grid)"/><text x="13" y="13" font-size="9" fill="var(--muted)" text-anchor="end">27</text><text x="13" y="83" font-size="9" fill="var(--muted)" text-anchor="end">13</text><text x="13" y="153" font-size="9" fill="var(--muted)" text-anchor="end">0</text><line x1="17" y1="10" x2="17" y2="150" stroke="var(--axis)"/><line x1="17" y1="150" x2="437" y2="150" stroke="var(--axis)"/><polyline points="17,150 27,150 37,150 47,150 57,150 68,150 78,114 88,109 98,109 109,73 119,57 129,57 139,47 150,42 160,42 170,42 180,42 191,42 201,31 211,21 221,21 232,21 242,21 252,21 262,16 273,16 283,16 293,16 303,16 314,16 324,16 334,16 344,16 355,16 365,26 375,26 385,26 396,26 406,16 416,16 426,16 437,10" fill="none" stroke="var(--line)" stroke-width="2.5" stroke-linejoin="round" stroke-linecap="round"/><circle cx="17" cy="150" r="3" fill="var(--bg)" stroke="var(--line2)" stroke-width="2" data-version="2026-08-31" data-apps="0"/><circle cx="57" cy="150" r="3" fill="var(--bg)" stroke="var(--line2)" stroke-width="2" data-version="2026-09-13" data-apps="0"/><circle cx="98" cy="109" r="3" fill="var(--bg)" stroke="var(--line2)" stroke-width="2" data-version="2026-09-13" data-apps="8"/><circle cx="139" cy="47" r="3" fill="var(--bg)" stroke="var(--line2)" stroke-width="2" data-version="2026-09-14" data-apps="20"/><circle cx="180" cy="42" r="3" fill="var(--bg)" stroke="var(--line2)" stroke-width="2" data-version="2026-09-19" data-apps="21"/><circle cx="221" cy="21" r="3" fill="var(--bg)" stroke="var(--line2)" stroke-width="2" data-version="2026-09-23" data-apps="25"/><circle cx="262" cy="16" r="3" fill="var(--bg)" stroke="var(--line2)" stroke-width="2" data-version="2026-09-27" data-apps="26"/><circle cx="303" cy="16" r="3" fill="var(--bg)" stroke="var(--line2)" stroke-width="2" data-version="2026-09-29" data-apps="26"/><circle cx="344" cy="16" r="3" fill="var(--bg)" stroke="var(--line2)" stroke-width="2" data-version="2026-10-02" data-apps="26"/><circle cx="385" cy="26" r="3" fill="var(--bg)" stroke="var(--line2)" stroke-width="2" data-version="2026-10-03" data-apps="24"/><circle cx="426" cy="16" r="3" fill="var(--bg)" stroke="var(--line2)" stroke-width="2" data-version="2026-10-04" data-apps="26"/><circle cx="437" cy="10" r="3" fill="var(--bg)" stroke="var(--line2)" stroke-width="2" data-version="2026-10-04" data-apps="27"/><text x="17" y="166" font-size="10" fill="var(--label)" text-anchor="middle">Aug 31</text><text x="109" y="166" font-size="10" fill="var(--label)" text-anchor="middle">Sep 14</text><text x="170" y="166" font-size="10" fill="var(--label)" text-anchor="middle">Sep 16</text><text x="221" y="166" font-size="10" fill="var(--label)" text-anchor="middle">Sep 23</text><text x="273" y="166" font-size="10" fill="var(--label)" text-anchor="middle">Sep 28</text><text x="324" y="166" font-size="10" fill="var(--label)" text-anchor="middle">Sep 30</text><text x="416" y="166" font-size="10" fill="var(--label)" text-anchor="middle">Oct 4</text><text x="17" y="184" font-size="14" fill="var(--muted)">27 apps &#183; 100% documented</text></svg>