<svg xmlns="http://www.w3.org/2000/svg" width="128" height="128" viewBox="0 0 128 128">
  <defs>
    <linearGradient id="base" x1="0" y1="0" x2="0" y2="1">
      <stop offset="0" stop-color="#8F8F8F"/><stop offset="1" stop-color="#5C5C5C"/>
    </linearGradient>
    <linearGradient id="gloss" x1="0" y1="0" x2="0" y2="1">
      <stop offset="0" stop-color="#ffffff" stop-opacity="0.30"/>
      <stop offset="0.62" stop-color="#ffffff" stop-opacity="0"/>
    </linearGradient>
    <linearGradient id="rim" x1="0" y1="0" x2="0" y2="1">
      <stop offset="0" stop-color="#ffffff" stop-opacity="0.60"/>
      <stop offset="0.42" stop-color="#ffffff" stop-opacity="0"/>
      <stop offset="1" stop-color="#000000" stop-opacity="0.22"/>
    </linearGradient>
    <linearGradient id="paper" x1="0" y1="0" x2="0" y2="1">
      <stop offset="0" stop-color="#ffffff"/><stop offset="1" stop-color="#E9E2DC"/>
    </linearGradient>
    <filter id="drop" x="-40%" y="-40%" width="180%" height="190%">
      <feDropShadow dx="0" dy="2.4" stdDeviation="2.6" flood-color="#000000" flood-opacity="0.40"/>
    </filter>
    <clipPath id="tile"><rect x="0" y="0" width="128" height="128" rx="28"/></clipPath>
  </defs>
  <rect x="0" y="0" width="128" height="128" rx="28" fill="url(#base)"/>
  <g clip-path="url(#tile)">
    <ellipse cx="64" cy="6" rx="86" ry="54" fill="url(#gloss)"/>
    <linearGradient id="fold" x1="0" y1="0" x2="0" y2="1">
      <stop offset="0" stop-color="#7FCCFF"/><stop offset="1" stop-color="#0A84FF"/>
    </linearGradient>
    <g filter="url(#drop)">
      <rect x="30" y="35" width="28" height="14" rx="5" fill="#0B5FA8"/>
      <rect x="30" y="42" width="68" height="50" rx="7" fill="#0B5FA8"/>
      <rect x="20" y="56" width="88" height="44" rx="9" fill="url(#fold)"/>
      <rect x="20" y="56" width="88" height="3" rx="1.5" fill="#BFE6FF" opacity="0.75"/>
    </g>
  </g>
  <rect x="0.7" y="0.7" width="126.6" height="126.6" rx="27.3" fill="none" stroke="url(#rim)" stroke-width="1.4"/>
</svg>
