<svg xmlns="http://www.w3.org/2000/svg" viewBox="0 0 100 100" width="100" height="100"><defs><filter id="crayon" x="-5%" y="-5%" width="110%" height="110%"><feTurbulence type="fractalNoise" baseFrequency="1.1" numOctaves="2" seed="7"/><feDisplacementMap in="SourceGraphic" scale="1.1" xChannelSelector="R" yChannelSelector="G"/></filter></defs><g fill="none" stroke="#161513" stroke-linecap="round" stroke-linejoin="round" filter="url(#crayon)"><path d="M30.61 80.94C31.46 80.99 34.15 81.09 35.73 81.19C37.31 81.3 38.44 81.53 40.09 81.56C41.74 81.59 43.75 81.34 45.65 81.37C47.55 81.41 49.54 81.82 51.48 81.78C53.42 81.73 55.32 81.25 57.3 81.11C59.28 80.96 61.91 81.11 63.39 80.92C64.86 80.73 65.33 80.08 66.17 79.96C67.01 79.84 67.87 80.33 68.43 80.19C68.99 80.06 69.34 79.32 69.52 79.14M43.78 81.34C43.95 81 44.74 79.8 44.75 79.27C44.76 78.75 43.82 79.16 43.85 78.21C43.88 77.27 44.54 75.11 44.94 73.62C45.33 72.14 45.93 70.3 46.23 69.3C46.53 68.29 46.57 67.96 46.75 67.57C46.92 67.18 47.81 67.41 47.29 66.96C46.78 66.51 44.91 65.6 43.66 64.86C42.41 64.11 41.1 63.25 39.81 62.5C38.52 61.76 37.29 61.28 35.91 60.38C34.53 59.48 32.59 58.27 31.51 57.11C30.43 55.94 30.35 54.53 29.43 53.4C28.52 52.26 26.72 51.43 26.03 50.29C25.35 49.16 25.55 47.69 25.35 46.58C25.15 45.48 24.93 44.16 24.85 43.67M29.51 42.59C29.58 42.94 29.87 43.78 29.92 44.71C29.97 45.64 29.27 47.18 29.8 48.16C30.32 49.14 32.14 49.75 33.07 50.6C34 51.46 34.41 52.36 35.37 53.3C36.34 54.24 37.68 55.53 38.88 56.25C40.09 56.97 41.44 57.28 42.58 57.61C43.72 57.94 44.39 58.13 45.72 58.25C47.06 58.37 49.92 59.15 50.59 58.34C51.26 57.53 49.66 55.1 49.75 53.4C49.84 51.71 50.95 50.07 51.13 48.16C51.3 46.25 50.94 43.63 50.81 41.94C50.68 40.25 50.41 38.66 50.33 38.01M54.22 37.55C54.31 38.32 54.47 40.46 54.73 42.18C54.99 43.9 55.81 45.98 55.78 47.86C55.75 49.74 54.85 51.47 54.56 53.43C54.27 55.4 53.67 58.96 54.06 59.66C54.45 60.35 56.02 58.31 56.87 57.61C57.73 56.9 58.24 56.1 59.19 55.43C60.13 54.76 61.65 54.18 62.56 53.59C63.47 53 64.1 52.41 64.62 51.88C65.14 51.35 65.45 51.14 65.68 50.4C65.91 49.67 65.95 47.97 66 47.48M70.69 48.96C70.41 49.4 69.36 50.76 68.99 51.61C68.63 52.46 69.01 53.09 68.49 54.06C67.97 55.04 66.9 56.38 65.87 57.46C64.84 58.54 63.64 59.43 62.33 60.54C61.02 61.65 59.32 62.84 57.99 64.12C56.66 65.41 54.95 67.3 54.34 68.27C53.73 69.24 54.34 69.37 54.34 69.93C54.35 70.49 54.61 70.69 54.39 71.62C54.17 72.54 53.12 74.34 53.03 75.5C52.94 76.67 53.81 77.95 53.85 78.6C53.88 79.25 53.22 78.89 53.23 79.41C53.23 79.93 53.76 81.34 53.87 81.72" stroke-width="2.3"/><path d="M44.75 79.27C44.6 79.1 43.82 79.16 43.85 78.21C43.88 77.27 44.54 75.11 44.94 73.62C45.33 72.14 45.93 70.3 46.23 69.3C46.53 68.29 46.57 67.96 46.75 67.57C46.92 67.18 47.2 67.06 47.29 66.96M54.34 69.93C54.35 70.21 54.61 70.69 54.39 71.62C54.17 72.54 53.12 74.34 53.03 75.5C52.94 76.67 53.81 77.95 53.85 78.6C53.88 79.25 53.22 78.89 53.23 79.41C53.23 79.93 53.76 81.34 53.87 81.72M35.73 81.19C36.46 81.26 38.44 81.53 40.09 81.56C41.74 81.59 43.75 81.34 45.65 81.37C47.55 81.41 49.54 81.82 51.48 81.78C53.42 81.73 55.32 81.25 57.3 81.11C59.28 80.96 62.37 80.95 63.39 80.92" stroke-width="3.1"/><path d="M43.85 78.21C44.03 77.45 44.54 75.11 44.94 73.62C45.33 72.14 46.01 70.02 46.23 69.3M53.03 75.5C53.16 76.02 53.81 77.95 53.85 78.6C53.88 79.25 53.33 79.28 53.23 79.41M40.09 81.56C41.02 81.53 43.75 81.34 45.65 81.37C47.55 81.41 50.51 81.71 51.48 81.78" stroke-width="3.91"/><path d="M18.69 35.94C19.45 35.37 21.55 33.2 23.22 32.49C24.9 31.79 27.35 31.15 28.76 31.69C30.18 32.24 30.88 34.48 31.73 35.76C32.57 37.05 33.92 37.9 33.84 39.39C33.76 40.88 32.23 43.93 31.24 44.71C30.25 45.5 29.03 44.07 27.89 44.12C26.75 44.17 25.33 45.52 24.39 45.01C23.45 44.51 23.15 42.15 22.26 41.08C21.37 40 18.99 39.26 19.07 38.55C19.16 37.84 21.67 37.34 22.79 36.84C23.9 36.33 24.89 35.5 25.77 35.5C26.65 35.51 27.78 36.5 28.07 36.84C28.35 37.18 27.32 37.1 27.47 37.54C27.62 37.97 28.93 38.72 28.96 39.46C28.99 40.2 27.83 41.88 27.67 41.96C27.5 42.04 28.39 40.16 27.96 39.96C27.53 39.76 25.51 40.61 25.1 40.77C24.68 40.93 25.23 41.28 25.46 40.9C25.69 40.53 26.14 38.95 26.48 38.51C26.81 38.06 27.12 38.16 27.49 38.23C27.85 38.3 28.64 38.42 28.66 38.92C28.68 39.41 28.15 40.54 27.6 41.2C27.05 41.86 25.91 42.62 25.36 42.87C24.82 43.13 24.52 43.37 24.33 42.72C24.13 42.07 24.34 39.97 24.18 38.97C24.02 37.97 23.27 37.24 23.39 36.71C23.51 36.18 24.64 35.94 24.89 35.78M20.8 39.74C20.8 39.09 20.25 36.52 20.84 35.88C21.43 35.24 23.34 35.87 24.33 35.91C25.33 35.95 26 35.96 26.79 36.11C27.58 36.27 28.42 36.25 29.05 36.84C29.68 37.44 30.54 38.84 30.57 39.7C30.61 40.57 29.86 41.69 29.23 42.04C28.61 42.39 27.6 41.72 26.85 41.79C26.1 41.86 25.05 42.61 24.73 42.45C24.41 42.29 24.9 41.46 24.93 40.81C24.97 40.15 24.71 38.73 24.96 38.52C25.21 38.31 26.15 39.39 26.42 39.55C26.7 39.71 26.5 39.26 26.61 39.46C26.72 39.67 27.19 40.24 27.08 40.79C26.98 41.33 26.48 42.42 25.99 42.76C25.5 43.1 24.58 43.09 24.14 42.81C23.69 42.53 23.68 41.51 23.32 41.08C22.96 40.65 22.21 40.79 21.97 40.24C21.72 39.7 21.69 38.69 21.84 37.8C21.99 36.91 22.11 35.34 22.86 34.9C23.62 34.47 25.29 34.99 26.38 35.21C27.48 35.42 28.63 35.68 29.44 36.21C30.26 36.73 31.01 37.51 31.29 38.34C31.57 39.17 31.64 40.4 31.15 41.18C30.67 41.96 29.34 42.43 28.39 43.03C27.44 43.64 26.32 44.84 25.45 44.79C24.57 44.74 23.57 43.28 23.13 42.71C22.7 42.15 22.73 41.94 22.83 41.39C22.94 40.84 23.63 40.05 23.79 39.43C23.95 38.82 23.76 37.86 23.8 37.69C23.85 37.53 23.94 38.06 24.06 38.42C24.17 38.77 24.14 39.41 24.48 39.81C24.83 40.21 26.01 40.64 26.13 40.82C26.24 41.01 25.37 41.1 25.18 40.9C24.99 40.71 25.31 40.03 24.99 39.67C24.67 39.31 23.36 39.16 23.25 38.77C23.15 38.38 24.17 37.58 24.36 37.34M27.32 36.96C27.57 37.04 28.48 37.04 28.82 37.47C29.17 37.9 29.38 39.01 29.39 39.53C29.4 40.05 29.32 40.42 28.89 40.59C28.46 40.77 27.51 40.57 26.81 40.59C26.12 40.61 25.25 40.84 24.73 40.71C24.2 40.58 23.67 40.23 23.68 39.8C23.7 39.37 24.42 38.76 24.8 38.15C25.18 37.53 25.33 36.26 25.97 36.11C26.6 35.97 28.1 36.81 28.61 37.26C29.12 37.71 29 38.37 29.02 38.81C29.05 39.26 29.09 39.71 28.79 39.93C28.49 40.15 27.71 40.02 27.23 40.13C26.75 40.25 26.33 40.7 25.92 40.61C25.5 40.53 24.79 39.93 24.73 39.62C24.68 39.31 25.49 39.13 25.61 38.76C25.73 38.39 25.21 37.67 25.47 37.41C25.73 37.15 26.63 37.12 27.17 37.22C27.71 37.31 28.45 37.86 28.71 37.99M33.3 35.22C33.1 35.43 32.55 36.33 32.06 36.49C31.57 36.66 30.55 36.59 30.38 36.21C30.2 35.84 30.94 34.39 31.02 34.23C31.1 34.08 31.07 35.2 30.86 35.27C30.65 35.33 29.83 34.9 29.76 34.6C29.68 34.3 30.05 33.76 30.41 33.48C30.76 33.2 31.44 32.74 31.9 32.93C32.36 33.11 33.06 34.19 33.16 34.61C33.25 35.04 32.57 35.34 32.45 35.48M31.46 34.07C31.18 34.25 30.28 34.99 29.75 35.14C29.21 35.29 28.43 35.24 28.24 34.97C28.06 34.71 28.67 33.7 28.66 33.56C28.65 33.42 28.42 34.15 28.19 34.13C27.97 34.12 27.45 33.74 27.32 33.46C27.19 33.18 27.08 32.88 27.42 32.48C27.76 32.07 28.71 30.94 29.36 31.03C30.02 31.12 31.24 32.44 31.37 33.01C31.5 33.58 30.33 34.22 30.12 34.46M29.65 32.68C29.53 32.89 29.42 33.77 28.96 33.92C28.5 34.07 27.24 33.74 26.9 33.6C26.55 33.46 26.79 33.09 26.88 33.09C26.97 33.09 27.42 33.58 27.43 33.59C27.45 33.6 27.25 33.47 26.98 33.14C26.7 32.81 25.6 32.04 25.77 31.6C25.94 31.17 27.38 30.49 27.99 30.54C28.6 30.58 29.33 31.4 29.42 31.88C29.52 32.36 28.7 33.17 28.56 33.43M59.65 23.48C59.69 24.46 59.72 27.57 59.85 29.38C59.98 31.2 60.57 32.78 60.42 34.37C60.26 35.97 60.02 38.11 58.93 38.95C57.84 39.8 55.13 39.35 53.87 39.43C52.62 39.52 52.14 39.97 51.39 39.46C50.64 38.95 49.63 37.36 49.37 36.4C49.12 35.44 49.23 34.32 49.87 33.68C50.5 33.04 52.58 32.73 53.17 32.56C53.76 32.38 52.99 32.51 53.43 32.63C53.87 32.75 56.02 32.57 55.81 33.28C55.59 33.99 53.06 36.03 52.13 36.89C51.2 37.74 50.92 37.91 50.22 38.41C49.52 38.91 48.81 40.1 47.94 39.88C47.07 39.65 45.59 38.41 45.02 37.08C44.46 35.75 44.43 33.35 44.55 31.88C44.68 30.41 45.05 29.17 45.78 28.25C46.51 27.34 47.78 26.54 48.93 26.39C50.09 26.25 51.35 27.03 52.73 27.37C54.11 27.71 56 27.67 57.22 28.43C58.44 29.19 59.73 30.87 60.04 31.94C60.34 33.01 59.54 34.17 59.04 34.86C58.54 35.54 58.23 35.64 57.04 36.02C55.86 36.41 53.25 37.24 51.95 37.14C50.65 37.04 49.85 36.19 49.24 35.41C48.63 34.64 47.69 33.14 48.29 32.48C48.88 31.83 51.8 31.12 52.8 31.48C53.81 31.84 53.27 34.23 54.33 34.65C55.4 35.07 58.49 33.33 59.19 34C59.9 34.67 59.48 37.41 58.57 38.68C57.66 39.94 55.47 41.46 53.71 41.59C51.95 41.72 50.02 39.98 48.01 39.43C45.99 38.88 42.95 39.25 41.6 38.29C40.25 37.34 39.34 35 39.88 33.7C40.42 32.39 43.47 31.83 44.81 30.45C46.16 29.07 46.5 25.97 47.93 25.41C49.37 24.85 51.5 26.54 53.42 27.1C55.34 27.65 58.81 28.02 59.47 28.71C60.13 29.41 57.9 30.31 57.38 31.27C56.86 32.23 57.13 33.96 56.36 34.46C55.6 34.96 53.27 34.55 52.76 34.27C52.25 33.99 53.56 33.07 53.3 32.8C53.03 32.54 51.22 32.84 51.19 32.66C51.17 32.48 52.46 32.27 53.15 31.75C53.84 31.23 54.69 29.13 55.33 29.53C55.97 29.92 56.71 33.36 56.98 34.12M48.5 37.67C48.44 37.34 48.15 36.27 48.17 35.66C48.19 35.05 48.55 34.63 48.6 34.01C48.65 33.38 48.16 32.09 48.48 31.92C48.81 31.75 49.99 32.95 50.55 32.98C51.11 33.01 51.7 32.05 51.83 32.11C51.97 32.16 51.33 32.83 51.37 33.32C51.41 33.81 52.11 34.63 52.06 35.06C52 35.49 51.49 36.01 51.04 35.9C50.58 35.78 49.7 34.89 49.33 34.34C48.95 33.79 48.75 33.12 48.79 32.6C48.82 32.09 48.94 31.59 49.53 31.24C50.12 30.89 51.48 30.88 52.31 30.49C53.14 30.1 54.05 28.68 54.52 28.89C54.99 29.1 54.66 30.97 55.13 31.75C55.59 32.52 57.19 32.73 57.29 33.55C57.39 34.38 56.34 36.22 55.74 36.71C55.14 37.19 54.32 36.41 53.68 36.45C53.05 36.49 52.41 36.91 51.95 36.93C51.49 36.95 51.32 36.99 50.92 36.54C50.52 36.1 49.59 34.81 49.55 34.27C49.5 33.73 50.33 33.41 50.65 33.29C50.98 33.18 50.98 33.59 51.51 33.56C52.05 33.53 53.65 32.84 53.86 33.13C54.07 33.41 53.23 34.8 52.75 35.25C52.27 35.7 51.56 35.53 51 35.81C50.44 36.09 49.88 36.82 49.39 36.92C48.9 37.02 48.49 36.78 48.05 36.43C47.6 36.09 46.83 35.46 46.71 34.84C46.59 34.23 46.91 33.2 47.32 32.75C47.72 32.3 48.5 32.66 49.13 32.15C49.76 31.63 50.67 29.88 51.1 29.65C51.54 29.42 51.39 30.45 51.76 30.77C52.13 31.09 52.85 31.11 53.34 31.56C53.82 32.01 54.82 32.87 54.68 33.46C54.55 34.06 53.03 34.85 52.52 35.14C52.02 35.42 51.87 35.5 51.66 35.18C51.44 34.86 51.38 33.75 51.24 33.2C51.11 32.65 50.53 32.02 50.85 31.87C51.17 31.72 52.66 32.34 53.18 32.3C53.71 32.25 53.7 31.41 54.02 31.63C54.33 31.85 54.82 32.91 55.07 33.62C55.32 34.33 55.75 35.4 55.52 35.89C55.3 36.38 54.21 36.16 53.73 36.55C53.25 36.95 53.12 38.11 52.65 38.26C52.19 38.4 51.73 37.64 50.95 37.42C50.17 37.21 48.2 37.36 47.97 36.95C47.74 36.55 49.4 35.7 49.57 35C49.75 34.31 48.93 33.18 49.02 32.79C49.11 32.4 49.68 32.81 50.11 32.66C50.55 32.51 51.3 31.64 51.65 31.88C51.99 32.12 52.3 33.59 52.19 34.11C52.08 34.63 51.22 34.72 50.97 35.02C50.72 35.31 51.14 35.67 50.68 35.88C50.22 36.09 48.61 36.2 48.19 36.27M49.42 30.68C49.83 30.52 51.14 29.9 51.92 29.76C52.7 29.62 53.41 29.54 54.09 29.84C54.77 30.13 55.73 31.08 56.02 31.54C56.31 32 56.06 32.07 55.82 32.59C55.58 33.12 54.99 34.36 54.58 34.7C54.18 35.03 53.86 34.48 53.39 34.62C52.91 34.76 52.08 35.59 51.73 35.56C51.39 35.52 51.17 34.73 51.3 34.39C51.42 34.04 52.23 33.86 52.48 33.48C52.73 33.09 52.72 32.28 52.81 32.06C52.9 31.84 52.83 31.94 53.03 32.13C53.22 32.32 54.05 32.89 53.96 33.2C53.88 33.51 52.8 33.71 52.53 34C52.25 34.29 52.55 34.96 52.31 34.95C52.08 34.94 51.47 34.17 51.12 33.94C50.76 33.71 50.35 33.99 50.18 33.58C50.01 33.17 49.95 32.07 50.1 31.48C50.26 30.89 50.55 30.25 51.11 30.04C51.68 29.83 52.85 30.05 53.51 30.21C54.16 30.38 54.69 30.57 55.06 31.03C55.43 31.48 55.54 32.39 55.75 32.96C55.96 33.52 56.55 34.05 56.31 34.42C56.08 34.78 54.93 34.73 54.33 35.14C53.73 35.55 53.2 36.85 52.73 36.88C52.27 36.92 51.87 35.77 51.53 35.37C51.19 34.97 50.86 34.89 50.7 34.48C50.53 34.07 50.48 33.4 50.54 32.92C50.61 32.43 50.9 31.75 51.1 31.59C51.31 31.44 51.56 31.8 51.78 32.01C52 32.22 52.23 32.7 52.42 32.85C52.61 32.99 52.78 32.67 52.93 32.9C53.07 33.14 53.35 34.08 53.28 34.25C53.2 34.43 52.84 34.22 52.47 33.96C52.09 33.71 51.11 33.14 51.03 32.74C50.95 32.34 51.81 31.95 51.98 31.59C52.14 31.23 52.03 30.73 52.04 30.55M53.97 26.78C53.81 26.55 52.75 25.62 52.99 25.36C53.23 25.1 54.96 25.21 55.42 25.23C55.88 25.24 55.79 25.38 55.73 25.43C55.67 25.48 54.98 25.55 55.04 25.5C55.1 25.45 55.68 25.01 56.08 25.13C56.49 25.25 57.47 25.8 57.47 26.22C57.47 26.64 56.65 27.5 56.1 27.65C55.55 27.8 54.42 27.41 54.17 27.14C53.92 26.87 54.53 26.22 54.6 26.03M55.99 28.11C55.77 27.94 54.95 27.49 54.7 27.07C54.44 26.65 54.26 25.74 54.45 25.58C54.63 25.41 55.62 26.03 55.79 26.06C55.96 26.09 55.42 25.93 55.44 25.77C55.47 25.61 55.72 25.19 55.93 25.09C56.13 24.99 56.33 24.87 56.67 25.18C57.01 25.49 57.96 26.55 57.97 26.96C57.98 27.38 57.2 27.58 56.72 27.64C56.24 27.7 55.37 27.4 55.09 27.35M76.87 45.88C76.55 46.47 75.57 48.71 74.91 49.47C74.25 50.24 73.83 50.55 72.9 50.46C71.97 50.37 70.43 49.35 69.33 48.92C68.22 48.49 67.34 48.61 66.27 47.88C65.19 47.14 63.22 45.21 62.87 44.53C62.52 43.86 63.62 44.18 64.18 43.84C64.73 43.5 65.62 42.39 66.2 42.47C66.77 42.54 66.88 44.08 67.61 44.28C68.34 44.48 70.1 43.36 70.57 43.68C71.04 44.01 70.66 45.63 70.4 46.23C70.14 46.82 69.58 47.54 69.01 47.24C68.44 46.95 67.53 45.19 66.99 44.47C66.45 43.75 65.43 43.36 65.77 42.92C66.11 42.49 68.36 42.42 69.04 41.85C69.73 41.28 69.15 39.66 69.89 39.52C70.63 39.38 72.74 40.05 73.46 41.03C74.19 42.01 74.21 44.31 74.23 45.4C74.25 46.49 73.94 46.92 73.59 47.56C73.23 48.2 72.69 48.62 72.1 49.23C71.51 49.83 71.13 51.18 70.03 51.21C68.93 51.24 66.63 50.12 65.49 49.41C64.34 48.7 63.99 47.88 63.17 46.96C62.34 46.04 60.54 45.11 60.54 43.91C60.55 42.71 62.07 40.42 63.19 39.77C64.3 39.13 65.73 40.14 67.25 40.04C68.77 39.94 71.17 38.78 72.29 39.17C73.41 39.56 73.97 41.74 73.99 42.4C74.01 43.05 72.75 42.35 72.39 43.11C72.03 43.88 72.44 46.28 71.84 47C71.25 47.73 69.45 47.59 68.83 47.47C68.2 47.35 67.92 46.64 68.09 46.29C68.26 45.94 69.35 45.72 69.86 45.36C70.36 45 70.98 44.52 71.14 44.13C71.29 43.73 70.69 42.79 70.76 42.99C70.84 43.19 71.53 44.6 71.59 45.33C71.66 46.07 71.22 47.06 71.14 47.41M73.17 47.9C72.81 48.23 71.98 49.67 71.01 49.88C70.04 50.1 68.31 49.64 67.36 49.19C66.41 48.74 65.63 47.75 65.31 47.2C65 46.65 65.47 46.28 65.45 45.87C65.43 45.46 64.87 45.25 65.17 44.74C65.47 44.24 66.67 42.84 67.25 42.83C67.83 42.82 68.12 44.21 68.65 44.67C69.17 45.12 70.47 45.4 70.43 45.54C70.39 45.68 68.91 45.39 68.41 45.52C67.92 45.66 67.89 46.4 67.46 46.34C67.02 46.27 66.26 45.38 65.8 45.14C65.34 44.9 64.45 45.29 64.69 44.87C64.93 44.46 66.65 43.45 67.25 42.65C67.85 41.86 67.72 40.36 68.27 40.12C68.82 39.89 69.84 40.75 70.54 41.25C71.23 41.74 71.86 42.35 72.44 43.08C73.02 43.8 73.99 44.91 73.99 45.59C74 46.27 73.08 46.68 72.48 47.17C71.88 47.65 70.93 48.16 70.37 48.51C69.8 48.86 69.85 49.28 69.08 49.26C68.32 49.25 66.04 48.92 65.75 48.42C65.47 47.92 67.09 46.77 67.38 46.25C67.66 45.74 67.46 45.59 67.45 45.32C67.45 45.04 67.23 44.69 67.33 44.6C67.43 44.52 67.7 44.61 68.05 44.83C68.4 45.04 69.37 45.6 69.41 45.9C69.46 46.2 68.66 46.46 68.31 46.62C67.96 46.79 67.76 46.68 67.32 46.89C66.87 47.1 66.04 48.13 65.62 47.87C65.2 47.62 64.99 46.22 64.8 45.36C64.62 44.5 64.05 43.27 64.49 42.73C64.93 42.18 66.75 42.33 67.44 42.1C68.14 41.88 67.7 41.65 68.65 41.37C69.61 41.09 72.21 40.09 73.17 40.44C74.14 40.79 74.42 42.63 74.45 43.47C74.48 44.3 73.86 44.69 73.34 45.46C72.81 46.23 71.93 47.56 71.3 48.1C70.67 48.65 70.39 48.82 69.55 48.75C68.72 48.68 66.91 48.08 66.31 47.68C65.7 47.27 65.58 46.63 65.9 46.32C66.21 46 67.63 46.22 68.21 45.81C68.78 45.41 68.82 44.2 69.36 43.91C69.91 43.62 71.11 43.71 71.47 44.08C71.82 44.44 71.9 45.44 71.52 46.07C71.13 46.71 69.55 47.56 69.15 47.86M72.29 46.2C71.91 46.34 70.65 47.01 69.97 47.06C69.28 47.11 68.7 46.73 68.21 46.5C67.72 46.28 67.12 46.12 67 45.72C66.89 45.31 67.33 44.43 67.55 44.08C67.77 43.72 68.09 43.98 68.32 43.59C68.55 43.19 68.51 41.9 68.94 41.69C69.37 41.48 70.34 42.09 70.9 42.35C71.46 42.61 72.1 42.88 72.32 43.26C72.54 43.64 72.43 44.1 72.24 44.64C72.05 45.19 71.56 46.19 71.17 46.51C70.78 46.83 70.29 46.63 69.9 46.59C69.51 46.54 69.01 46.49 68.82 46.23C68.62 45.97 68.79 45.37 68.74 45.01C68.69 44.65 68.57 44.33 68.53 44.07C68.49 43.8 68.22 43.5 68.49 43.44C68.76 43.39 69.74 43.58 70.15 43.73C70.56 43.88 70.86 44.09 70.95 44.33C71.04 44.56 70.9 44.99 70.69 45.15C70.48 45.31 69.94 45.31 69.69 45.3C69.44 45.28 69.21 45.27 69.2 45.07C69.19 44.87 69.58 44.35 69.64 44.1C69.71 43.84 69.53 43.61 69.61 43.55C69.68 43.49 69.96 43.68 70.09 43.75C70.22 43.82 70.16 43.83 70.39 43.96C70.63 44.1 71.46 44.29 71.5 44.55C71.54 44.82 70.92 45.34 70.63 45.55C70.34 45.76 69.92 45.77 69.78 45.81M63.68 37.7C64.05 37.5 65.41 36.36 65.89 36.46C66.38 36.57 66.71 37.87 66.58 38.33C66.46 38.8 65.23 39.17 65.16 39.24C65.08 39.31 65.9 38.81 66.13 38.76C66.35 38.72 66.65 38.64 66.5 38.96C66.34 39.28 65.65 40.61 65.2 40.71C64.75 40.81 64.07 39.9 63.8 39.54C63.53 39.17 63.47 38.84 63.58 38.52C63.68 38.19 64.29 37.75 64.43 37.59M75.03 42.77C74.72 42.63 73.42 42.4 73.19 41.94C72.95 41.48 73.35 40.23 73.63 40.02C73.91 39.81 74.72 40.71 74.88 40.67C75.04 40.63 74.66 39.89 74.58 39.78C74.5 39.68 74.19 40.1 74.38 40.04C74.58 39.98 75.31 39.21 75.73 39.42C76.15 39.63 76.9 40.84 76.9 41.28C76.9 41.73 76.23 42.07 75.71 42.09C75.19 42.11 74.1 41.52 73.78 41.41" stroke-width="1.7"/></g></svg>
