<svg xmlns="http://www.w3.org/2000/svg" width="447" height="190" viewBox="0 0 447 190"><style>
  :root {
    --bg: #ffffff; --grid: #e4e0d6; --axis: #6b6a63; --muted: #6b6a63;
    --label: #6b6a63; --strong: #141413; --line: #141413; --line2: #d97757; --line2-pct: #d97757;
  }
  @media (prefers-color-scheme: dark) {
    :root { --bg: #1c1b1a; --grid: #38362f; --axis: #b8b6ac; --muted: #b8b6ac;
             --label: #b8b6ac; --strong: #ece8df; --line: #ece8df; --line2: #d97757; --line2-pct: #d97757; }
  }
  line[stroke="var(--grid)"] { stroke-dasharray: none; }
  text { font-family: -apple-system, Helvetica, Arial, sans-serif; }
</style><rect width="100%" height="100%" fill="var(--bg)"/><line x1="17" y1="10" x2="437" y2="10" stroke="var(--grid)"/><line x1="17" y1="80" x2="437" y2="80" stroke="var(--grid)"/><text x="13" y="13" font-size="9" fill="var(--muted)" text-anchor="end">25</text><text x="13" y="83" font-size="9" fill="var(--muted)" text-anchor="end">12</text><text x="13" y="153" font-size="9" fill="var(--muted)" text-anchor="end">0</text><line x1="17" y1="10" x2="17" y2="150" stroke="var(--axis)"/><line x1="17" y1="150" x2="437" y2="150" stroke="var(--axis)"/><polyline points="17,150 27,150 38,150 48,150 59,150 69,150 80,150 90,150 101,150 111,150 122,150 132,111 143,111 153,106 164,106 174,106 185,66 195,66 206,61 216,50 227,50 237,50 248,38 258,33 269,33 279,33 290,33 300,33 311,33 321,33 332,33 342,33 353,33 363,22 374,22 384,16 395,10 405,10 416,10 426,10 437,10" fill="none" stroke="var(--line)" stroke-width="2.5" stroke-linejoin="round" stroke-linecap="round"/><circle cx="17" cy="150" r="3" fill="var(--bg)" stroke="var(--line2)" stroke-width="2" data-version="2026-08-31" data-apps="0"/><circle cx="59" cy="150" r="3" fill="var(--bg)" stroke="var(--line2)" stroke-width="2" data-version="2026-09-13" data-apps="0"/><circle cx="101" cy="150" r="3" fill="var(--bg)" stroke="var(--line2)" stroke-width="2" data-version="2026-09-13" data-apps="0"/><circle cx="143" cy="111" r="3" fill="var(--bg)" stroke="var(--line2)" stroke-width="2" data-version="2026-09-13" data-apps="7"/><circle cx="185" cy="66" r="3" fill="var(--bg)" stroke="var(--line2)" stroke-width="2" data-version="2026-09-14" data-apps="15"/><circle cx="227" cy="50" r="3" fill="var(--bg)" stroke="var(--line2)" stroke-width="2" data-version="2026-09-14" data-apps="18"/><circle cx="269" cy="33" r="3" fill="var(--bg)" stroke="var(--line2)" stroke-width="2" data-version="2026-09-15" data-apps="21"/><circle cx="311" cy="33" r="3" fill="var(--bg)" stroke="var(--line2)" stroke-width="2" data-version="2026-09-16" data-apps="21"/><circle cx="353" cy="33" r="3" fill="var(--bg)" stroke="var(--line2)" stroke-width="2" data-version="2026-09-20" data-apps="21"/><circle cx="395" cy="10" r="3" fill="var(--bg)" stroke="var(--line2)" stroke-width="2" data-version="2026-09-22" data-apps="25"/><circle cx="437" cy="10" r="3" fill="var(--bg)" stroke="var(--line2)" stroke-width="2" data-version="2026-09-24" data-apps="25"/><text x="17" y="166" font-size="10" fill="var(--label)" text-anchor="middle">Aug 31</text><text x="185" y="166" font-size="10" fill="var(--label)" text-anchor="middle">Sep 14</text><text x="269" y="166" font-size="10" fill="var(--label)" text-anchor="middle">Sep 15</text><text x="321" y="166" font-size="10" fill="var(--label)" text-anchor="middle">Sep 19</text><text x="384" y="166" font-size="10" fill="var(--label)" text-anchor="middle">Sep 22</text><text x="437" y="166" font-size="10" fill="var(--label)" text-anchor="middle">Sep 24</text><text x="17" y="184" font-size="14" fill="var(--muted)">25 apps &#183; 100% documented &#183; 704 commits since Aug 31</text></svg>