<svg xmlns="http://www.w3.org/2000/svg" width="466" height="194" viewBox="0 0 466 194"><rect width="100%" height="100%" fill="#ffffff"/><text x="30" y="12" font-family="-apple-system,Helvetica,Arial,sans-serif" font-size="10" fill="#999">features shipped</text><line x1="30" y1="26" x2="450" y2="26" stroke="#eee"/><text x="2" y="29" font-family="-apple-system,Helvetica,Arial,sans-serif" font-size="9" fill="#999">82</text><line x1="30" y1="96" x2="450" y2="96" stroke="#eee"/><text x="2" y="99" font-family="-apple-system,Helvetica,Arial,sans-serif" font-size="9" fill="#999">41</text><line x1="30" y1="26" x2="30" y2="166" stroke="#ddd"/><line x1="30" y1="166" x2="450" y2="166" stroke="#ddd"/><text x="2" y="169" font-family="-apple-system,Helvetica,Arial,sans-serif" font-size="9" fill="#999">0</text><polyline points="30,149 52,143 74,136 96,131 118,124 140,112 162,103 184,96 206,91 228,86 251,81 273,79 295,74 317,69 339,62 361,57 383,50 405,40 427,35 450,32 " fill="none" stroke="#111" stroke-width="2"/><circle cx="30" cy="149" r="3" fill="#111"/><circle cx="52" cy="143" r="3" fill="#111"/><circle cx="74" cy="136" r="3" fill="#111"/><circle cx="96" cy="131" r="3" fill="#111"/><circle cx="118" cy="124" r="3" fill="#111"/><circle cx="140" cy="112" r="3" fill="#111"/><circle cx="162" cy="103" r="3" fill="#111"/><circle cx="184" cy="96" r="3" fill="#111"/><circle cx="206" cy="91" r="3" fill="#111"/><circle cx="228" cy="86" r="3" fill="#111"/><circle cx="251" cy="81" r="3" fill="#111"/><circle cx="273" cy="79" r="3" fill="#111"/><circle cx="295" cy="74" r="3" fill="#111"/><circle cx="317" cy="69" r="3" fill="#111"/><circle cx="339" cy="62" r="3" fill="#111"/><circle cx="361" cy="57" r="3" fill="#111"/><circle cx="383" cy="50" r="3" fill="#111"/><circle cx="405" cy="40" r="3" fill="#111"/><circle cx="427" cy="35" r="3" fill="#111"/><circle cx="450" cy="32" r="3" fill="#111"/><text x="30" y="182" font-family="-apple-system,Helvetica,Arial,sans-serif" font-size="10" fill="#666" text-anchor="middle">done</text><text x="52" y="182" font-family="-apple-system,Helvetica,Arial,sans-serif" font-size="10" fill="#666" text-anchor="middle">v2</text><text x="74" y="182" font-family="-apple-system,Helvetica,Arial,sans-serif" font-size="10" fill="#666" text-anchor="middle">v3</text><text x="96" y="182" font-family="-apple-system,Helvetica,Arial,sans-serif" font-size="10" fill="#666" text-anchor="middle">v4</text><text x="118" y="182" font-family="-apple-system,Helvetica,Arial,sans-serif" font-size="10" fill="#666" text-anchor="middle">v5</text><text x="140" y="182" font-family="-apple-system,Helvetica,Arial,sans-serif" font-size="10" fill="#666" text-anchor="middle">v6</text><text x="162" y="182" font-family="-apple-system,Helvetica,Arial,sans-serif" font-size="10" fill="#666" text-anchor="middle">v7</text><text x="184" y="182" font-family="-apple-system,Helvetica,Arial,sans-serif" font-size="10" fill="#666" text-anchor="middle">v8</text><text x="206" y="182" font-family="-apple-system,Helvetica,Arial,sans-serif" font-size="10" fill="#666" text-anchor="middle">v9</text><text x="228" y="182" font-family="-apple-system,Helvetica,Arial,sans-serif" font-size="10" fill="#666" text-anchor="middle">v10</text><text x="251" y="182" font-family="-apple-system,Helvetica,Arial,sans-serif" font-size="10" fill="#666" text-anchor="middle">v11</text><text x="273" y="182" font-family="-apple-system,Helvetica,Arial,sans-serif" font-size="10" fill="#666" text-anchor="middle">v12</text><text x="295" y="182" font-family="-apple-system,Helvetica,Arial,sans-serif" font-size="10" fill="#666" text-anchor="middle">v13</text><text x="317" y="182" font-family="-apple-system,Helvetica,Arial,sans-serif" font-size="10" fill="#666" text-anchor="middle">v14</text><text x="339" y="182" font-family="-apple-system,Helvetica,Arial,sans-serif" font-size="10" fill="#666" text-anchor="middle">v15</text><text x="361" y="182" font-family="-apple-system,Helvetica,Arial,sans-serif" font-size="10" fill="#666" text-anchor="middle">v16</text><text x="383" y="182" font-family="-apple-system,Helvetica,Arial,sans-serif" font-size="10" fill="#666" text-anchor="middle">v17</text><text x="405" y="182" font-family="-apple-system,Helvetica,Arial,sans-serif" font-size="10" fill="#666" text-anchor="middle">v18</text><text x="427" y="182" font-family="-apple-system,Helvetica,Arial,sans-serif" font-size="10" fill="#666" text-anchor="middle">v19</text><text x="450" y="182" font-family="-apple-system,Helvetica,Arial,sans-serif" font-size="10" fill="#666" text-anchor="middle">v19</text><text x="30" y="190" font-family="-apple-system,Helvetica,Arial,sans-serif" font-size="10" fill="#666">79 of 82 shipped</text></svg>
