<svg xmlns="http://www.w3.org/2000/svg" width="640" height="600" style="background:#fff;font-family:-apple-system,BlinkMacSystemFont,sans-serif" viewBox="0 0 640 600">
<text x="320" y="28" fill="#333" font-size="16" font-weight="600" text-anchor="middle">Joshua Tree Loop</text>
<rect width="200" height="40" x="220" y="55" fill="#b5651d" fill-opacity=".15" stroke="#b5651d" rx="8"/>
<text x="320" y="72" fill="#333" font-size="12" font-weight="500" text-anchor="middle">roadmap.md</text>
<text x="320" y="86" fill="#333" font-size="12" font-weight="500" text-anchor="middle">open items, model tags</text>
<rect width="200" height="40" x="220" y="145" fill="#b5651d" fill-opacity=".15" stroke="#b5651d" rx="8"/>
<text x="320" y="162" fill="#333" font-size="12" font-weight="500" text-anchor="middle">Main session</text>
<text x="320" y="176" fill="#333" font-size="12" font-weight="500" text-anchor="middle">picks, routes model</text>
<rect width="166" height="40" x="41" y="235" fill="#b5651d" fill-opacity=".15" stroke="#b5651d" rx="8"/>
<text x="124" y="252" fill="#333" font-size="12" font-weight="500" text-anchor="middle">Worktree agent</text>
<text x="124" y="266" fill="#333" font-size="12" font-weight="500" text-anchor="middle">Haiku, mechanical</text>
<rect width="166" height="40" x="237" y="235" fill="#b5651d" fill-opacity=".15" stroke="#b5651d" rx="8"/>
<text x="320" y="252" fill="#333" font-size="12" font-weight="500" text-anchor="middle">Worktree agent</text>
<text x="320" y="266" fill="#333" font-size="12" font-weight="500" text-anchor="middle">Sonnet, features</text>
<rect width="166" height="40" x="433" y="235" fill="#b5651d" fill-opacity=".15" stroke="#b5651d" rx="8"/>
<text x="516" y="252" fill="#333" font-size="12" font-weight="500" text-anchor="middle">Worktree agent</text>
<text x="516" y="266" fill="#333" font-size="12" font-weight="500" text-anchor="middle">Fable, risky</text>
<rect width="160" height="30" x="240" y="325" fill="#f0f0f0" stroke="#ccc" rx="6"/>
<text x="320" y="338" fill="#666" font-size="10" text-anchor="middle">tools/ci-local.sh</text>
<text x="320" y="350" fill="#666" font-size="10" text-anchor="middle">draft PR until green</text>
<rect width="200" height="40" x="220" y="415" fill="#fff" stroke="#1d1d1f" stroke-width="1.5" rx="8"/>
<text x="320" y="432" fill="#1d1d1f" font-size="12" font-weight="600" text-anchor="middle">Main session verifies</text>
<text x="320" y="446" fill="#1d1d1f" font-size="12" font-weight="600" text-anchor="middle">headless frames, real tests</text>
<rect width="200" height="40" x="220" y="505" fill="#b5651d" fill-opacity=".15" stroke="#b5651d" rx="8"/>
<text x="320" y="522" fill="#333" font-size="12" font-weight="500" text-anchor="middle">Merge on green</text>
<text x="320" y="536" fill="#333" font-size="12" font-weight="500" text-anchor="middle">tag, release, landing</text>
<path stroke="#d1d1d6" fill="none" d="M320 95V145M320 185V210M124 210v25M320 210v25M516 210v25M124 210H516M124 275v25M320 275v25M516 275v25M124 300H516M320 300V325M320 355V415M320 455V505"/>
<path d="M316 139L320 145L324 139z" fill="#b0b0b8"/>
<path d="M120 229L124 235L128 229z" fill="#b0b0b8"/>
<path d="M316 229L320 235L324 229z" fill="#b0b0b8"/>
<path d="M512 229L516 235L520 229z" fill="#b0b0b8"/>
<path d="M316 319L320 325L324 319z" fill="#b0b0b8"/>
<path d="M316 409L320 415L324 409z" fill="#b0b0b8"/>
<path d="M316 499L320 505L324 499z" fill="#b0b0b8"/>
<path stroke="#b5651d" stroke-dasharray="4 3" fill="none" d="M420 525H618V75H426"/>
<path d="M426 71L420 75L426 79z" fill="#b5651d"/>
<text x="612" y="300" fill="#b5651d" font-size="10" text-anchor="middle" transform="rotate(-90 612 300)">next item</text>
</svg>
